Coordinates
nRows=111
nColumns=2
inDegrees=yes
endheader
time	ankle_angle_r	
3.625	 -4.755292	
3.6875	 -4.800887	
3.75	 -4.825410	
3.8125	 -4.764012	
3.875	 -4.812695	
3.9375	 -4.788717	
4	 -4.828317	
4.0625	 -4.832131	
4.125	 -4.798162	
4.1875	 -4.785265	
4.25	 -4.822504	
4.3125	 -4.776001	
4.375	 -4.783630	
4.4375	 -4.753294	
4.5	 -4.776001	
4.5625	 -4.760742	
4.625	 -4.774548	
4.6875	 -4.723504	
4.75	 -4.882813	
4.8125	 -4.865011	
4.875	 -4.806519	
4.9375	 -4.873548	
5	 -4.751296	
5.0625	 -4.831405	
5.125	 -4.669189	
5.1875	 -4.679180	
5.25	 -4.648844	
5.3125	 -4.648481	
5.375	 -4.608154	
5.4375	 -4.704248	
5.5	 -4.745483	
5.5625	 -4.806519	
5.625	 -4.806519	
5.6875	 -4.802704	
5.75	 -4.806519	
5.8125	 -4.837036	
5.875	 -4.845756	
5.9375	 -4.766918	
6	 -4.705520	
6.0625	 -4.791260	
6.125	 -4.821777	
6.1875	 -4.758381	
6.25	 -4.758563	
6.3125	 -4.764739	
6.375	 -4.835219	
6.4375	 -4.713331	
6.5	 -4.791260	
6.5625	 -4.791260	
6.625	 -4.834857	
6.6875	 -4.806519	
6.75	 -4.746210	
6.8125	 -4.760742	
6.875	 -4.776364	
6.9375	 -4.806700	
7	 -4.821777	
7.0625	 -4.760924	
7.125	 -4.745120	
7.1875	 -4.822322	
7.25	 -4.762196	
7.3125	 -4.837036	
7.375	 -4.805429	
7.4375	 -4.788717	
7.5	 -4.776001	
7.5625	 -4.698072	
7.625	 -4.745483	
7.6875	 -4.894075	
7.75	 -4.806519	
7.8125	 -4.798344	
7.875	 -4.821777	
7.9375	 -4.806519	
8	 -4.745483	
8.0625	 -4.788172	
8.125	 -4.809788	
8.1875	 -4.855746	
8.25	 -4.806519	
8.3125	 -4.825592	
8.375	 -4.863557	
8.4375	 -4.837036	
8.5	 -4.887172	
8.5625	 -4.904247	
8.625	 -4.852295	
8.6875	 -4.826682	
8.75	 -4.898071	
8.8125	 -4.837036	
8.875	 -4.852295	
8.9375	 -4.800887	
9	 -4.663377	
9.0625	 -4.806519	
9.125	 -4.766918	
9.1875	 -4.745483	
9.25	 -4.765102	
9.3125	 -4.745483	
9.375	 -4.805065	
9.4375	 -4.882813	
9.5	 -4.752749	
9.5625	 -4.776364	
9.625	 -4.806519	
9.6875	 -4.752931	
9.75	 -4.951114	
9.8125	 -4.921504	
9.875	 -4.911877	
9.9375	 -4.942031	
10	 -4.830497	
10.0625	 -4.904429	
10.125	 -4.898071	
10.1875	 -4.852295	
10.25	 -4.943848	
10.3125	 -4.873185	
10.375	 -4.903521	
10.4375	 -4.938580	
10.5	 -4.872640	
